<svg width="48" height="48" viewBox="0 0 48 48" fill="none" xmlns="http://www.w3.org/2000/svg">
<rect width="48" height="48" rx="24" fill="#EB8E78"/>
<path fill-rule="evenodd" clip-rule="evenodd" d="M12 14C11.4492 14 11 14.4492 11 15C11 15.5508 11.4492 16 12 16H14.2188L16.8438 26.5C17.0664 27.3906 17.8633 28 18.7812 28H20C18.3555 28 17 29.3555 17 31C17 32.6445 18.3555 34 20 34C21.6445 34 23 32.6445 23 31C23 29.3555 21.6445 28 20 28H29C27.3555 28 26 29.3555 26 31C26 32.6445 27.3555 34 29 34C30.6445 34 32 32.6445 32 31C32 29.3555 30.6445 28 29 28H30.25C31.1523 28 31.918 27.4023 32.1562 26.5312L34.75 17H18L18.5 19H32.1562L30.25 26H18.7812L16.1562 15.5C15.9336 14.6094 15.1367 14 14.2188 14H12ZM20 30C20.5625 30 21 30.4375 21 31C21 31.5625 20.5625 32 20 32C19.4375 32 19 31.5625 19 31C19 30.4375 19.4375 30 20 30ZM30 31C30 30.4375 29.5625 30 29 30C28.4375 30 28 30.4375 28 31C28 31.5625 28.4375 32 29 32C29.5625 32 30 31.5625 30 31Z" fill="white"/>
</svg>
