<svg width="112" height="112" viewBox="0 0 112 112" fill="none" xmlns="http://www.w3.org/2000/svg">
<path d="M56 112C86.9279 112 112 86.9279 112 56C112 25.0721 86.9279 0 56 0C25.0721 0 0 25.0721 0 56C0 86.9279 25.0721 112 56 112Z" fill="white"/>
<path fill-rule="evenodd" clip-rule="evenodd" d="M79.6096 49.0497C79.1677 48.3506 78.2366 48.138 77.5299 48.575L62.4087 57.9254V52.6478C62.4087 50.8594 61.1497 49.2583 58.8467 48.0908L71.7522 38.7273C72.4242 38.2395 72.5695 37.3053 72.0768 36.6403C71.5834 35.975 70.639 35.8314 69.9672 36.319L55.4224 46.872C53.6743 46.4513 51.7183 46.2274 49.6943 46.2274C46.4949 46.2274 43.4632 46.7855 41.1583 47.7992C38.4637 48.9839 36.9803 50.7057 36.9803 52.6476V60.2527L32.6168 63.4186C31.9446 63.9065 31.7993 64.8408 32.2922 65.5058C32.5879 65.9047 33.046 66.116 33.5104 66.116C33.8201 66.116 34.1326 66.0218 34.4016 65.8269L36.9801 63.9562V64.6229C36.9801 66.5648 38.4637 68.2865 41.158 69.4714C41.6623 69.6931 42.2029 69.8916 42.771 70.0685L37.6893 73.211C36.9825 73.6481 36.7676 74.5692 37.2093 75.2685C37.4957 75.7217 37.9874 75.9704 38.4906 75.9704C38.7637 75.9704 39.0404 75.897 39.2889 75.7433L47.0955 70.916C47.9415 70.999 48.811 71.043 49.6943 71.043C52.8937 71.043 55.9253 70.4848 58.2306 69.4714C60.9248 68.2865 62.4085 66.5648 62.4085 64.6229V61.4472L79.1294 51.1076C79.8362 50.6701 80.0511 49.7492 79.6096 49.0497ZM49.6943 49.2137C55.5232 49.2137 59.3903 51.2806 59.3903 52.6478C59.3903 54.0148 55.5231 56.0819 49.6943 56.0819C43.8655 56.0819 39.9983 54.0148 39.9983 52.6478C39.9983 51.2805 43.8655 49.2137 49.6943 49.2137ZM39.9983 56.9101V64.6226C39.9983 65.7119 42.4555 67.2446 46.4026 67.8228L59.3903 59.7915V56.9101C59.033 57.1174 58.6465 57.3133 58.2306 57.4959C55.9253 58.5095 52.8937 59.0677 49.6943 59.0677C46.4949 59.0677 43.4635 58.5095 41.1582 57.4959C40.7423 57.3131 40.3556 57.1174 39.9983 56.9101ZM59.3903 64.6226C59.3903 65.8102 56.4708 67.5253 51.8833 67.9552L59.3903 63.3131V64.6226ZM49.6943 54.8263C48.7546 54.8263 47.855 54.7423 47.1614 54.59C45.4299 54.2092 45.0663 53.3237 45.0663 52.6478C45.0663 51.9718 45.4297 51.0862 47.1614 50.7053C47.855 50.5528 48.7544 50.469 49.6943 50.469C50.6343 50.469 51.5338 50.5528 52.2272 50.7053C53.9589 51.0861 54.3224 51.9718 54.3224 52.6478C54.3224 53.3237 53.9587 54.2092 52.2272 54.59C51.5338 54.7423 50.6342 54.8263 49.6943 54.8263Z" fill="#555555"/>
</svg>
