<svg width="112" height="112" viewBox="0 0 112 112" fill="none" xmlns="http://www.w3.org/2000/svg">
<path d="M56 112C86.9279 112 112 86.9279 112 56C112 25.0721 86.9279 0 56 0C25.0721 0 0 25.0721 0 56C0 86.9279 25.0721 112 56 112Z" fill="white"/>
<path fill-rule="evenodd" clip-rule="evenodd" d="M63.5237 67.6643H77.3887C78.2627 67.6643 78.9712 68.3889 78.9712 69.2826C78.9712 70.1764 78.2627 70.9011 77.3887 70.9011H35.611C34.7371 70.9011 34.0285 70.1764 34.0285 69.2826C34.0285 68.3889 34.7371 67.6641 35.611 67.6641H49.4761C39.9384 64.6013 33 55.473 33 44.7173C33 43.8234 33.7085 43.0988 34.5825 43.0988H78.4175C79.2914 43.0988 80 43.8235 80 44.7173C80 55.473 73.0614 64.6015 63.5237 67.6643ZM56.4998 59.6526C63.9057 59.6526 69.9945 53.7727 70.5422 46.3357H42.4576C43.0053 53.7727 49.0941 59.6526 56.4998 59.6526ZM36.2259 46.3357H39.2864C39.84 55.5589 47.3483 62.8896 56.4998 62.8896C65.6514 62.8896 73.1597 55.5591 73.7136 46.3357H76.7741C75.964 57.0551 67.1802 65.5245 56.4998 65.5245C45.8196 65.5245 37.036 57.0552 36.2259 46.3357ZM50.249 49.8056C50.249 50.6994 49.5404 51.4241 48.6665 51.4241C47.7927 51.4241 47.084 50.6994 47.084 49.8055V48.702C47.084 47.8083 47.7927 47.0835 48.6665 47.0835C49.5404 47.0835 50.249 47.8083 50.249 48.702V49.8056ZM58.0823 49.8056C58.0823 50.6994 57.3739 51.4241 56.4998 51.4241C55.626 51.4241 54.9174 50.6994 54.9174 49.8055V48.702C54.9174 47.8083 55.626 47.0835 56.4998 47.0835C57.3739 47.0835 58.0823 47.8083 58.0823 48.702V49.8056ZM64.3332 51.4241C65.2072 51.4241 65.9157 50.6994 65.9157 49.8056V48.702C65.9157 47.8083 65.2072 47.0835 64.3332 47.0835C63.4593 47.0835 62.7507 47.8083 62.7507 48.702V49.8055C62.7507 50.6994 63.4593 51.4241 64.3332 51.4241ZM61.999 54.3632C61.999 55.2571 61.2905 55.9817 60.4165 55.9817C59.5427 55.9817 58.834 55.2569 58.834 54.3632V53.2597C58.834 52.3659 59.5427 51.6412 60.4165 51.6412C61.2905 51.6412 61.999 52.3659 61.999 53.2597V54.3632ZM52.5832 55.9817C53.457 55.9817 54.1657 55.2571 54.1657 54.3632V53.2597C54.1657 52.3659 53.4572 51.6412 52.5832 51.6412C51.7093 51.6412 51.0007 52.3659 51.0007 53.2597V54.3632C51.0007 55.2569 51.7093 55.9817 52.5832 55.9817Z" fill="#555555"/>
</svg>
