<svg width="112" height="112" viewBox="0 0 112 112" fill="none" xmlns="http://www.w3.org/2000/svg">
<path d="M56 112C86.9279 112 112 86.9279 112 56C112 25.0721 86.9279 0 56 0C25.0721 0 0 25.0721 0 56C0 86.9279 25.0721 112 56 112Z" fill="white"/>
<path fill-rule="evenodd" clip-rule="evenodd" d="M78.5174 65.4125H76.3305V49.5641C76.3305 48.7345 75.6667 48.0618 74.8479 48.0618H70.2147V39.6494C70.2147 38.8198 69.5508 38.1472 68.732 38.1472H44.2681C43.4494 38.1472 42.7855 38.8198 42.7855 39.6494V48.0618H38.1523C37.3335 48.0618 36.6696 48.7345 36.6696 49.5641V65.4125H34.4826C33.6637 65.4125 33 66.0851 33 66.9147C33 67.7442 33.6637 68.4169 34.4826 68.4169H55.0174V72.8484H51.6073C50.7885 72.8484 50.1246 73.521 50.1246 74.3506C50.1246 75.1802 50.7885 75.8528 51.6073 75.8528H61.3927C62.2115 75.8528 62.8754 75.1802 62.8754 74.3506C62.8754 73.521 62.2115 72.8484 61.3927 72.8484H57.9826V68.4169H78.5174C79.3361 68.4169 80 67.7442 80 66.9147C80 66.0851 79.3361 65.4125 78.5174 65.4125ZM45.7508 41.1516H67.2492V48.0618H45.7508V41.1516ZM73.3651 53.0439V51.0663H39.6351V53.0439C39.9316 53.0982 40.2092 53.2422 40.4232 53.4593C40.7006 53.7388 40.8577 54.1263 40.8577 54.5214C40.8577 54.9164 40.7006 55.304 40.4232 55.5833C40.2095 55.8002 39.9312 55.9444 39.6351 55.9987V59.4643C40.2257 59.3955 40.5585 59.0721 41.1619 58.437C41.9487 57.6085 43.0264 56.4743 45.0842 56.4743C47.1423 56.4743 48.2198 57.6085 49.0066 58.4368C49.6931 59.1593 50.0287 59.4787 50.7929 59.4787C51.5569 59.4787 51.8926 59.1593 52.5787 58.437L52.5788 58.4369C53.3656 57.6086 54.4431 56.4743 56.5009 56.4743C58.5584 56.4743 59.6359 57.6084 60.4228 58.4366L60.4232 58.437C61.1093 59.1593 61.4448 59.4787 62.2088 59.4787C62.9729 59.4787 63.3084 59.1593 63.9945 58.437C64.7813 57.6087 65.859 56.4743 67.9167 56.4743C69.9744 56.4743 71.0517 57.6084 71.8385 58.4367L71.8388 58.437C72.442 59.0721 72.7747 59.3953 73.3651 59.4643V55.9989C73.0692 55.9445 72.7911 55.8004 72.5759 55.5833C72.3001 55.304 72.1415 54.9164 72.1415 54.5214C72.1415 54.1263 72.3001 53.7388 72.5759 53.4593C72.79 53.2422 73.0687 53.0981 73.3651 53.0439ZM39.6349 62.4743C41.5238 62.3829 42.5453 61.3129 43.2979 60.5204C43.9844 59.7981 44.3199 59.4787 45.0841 59.4787C45.8482 59.4787 46.1839 59.7981 46.8701 60.5204C47.657 61.3487 48.7349 62.4831 50.7927 62.4831C52.8506 62.4831 53.9285 61.3487 54.7151 60.5204C55.4013 59.7981 55.7369 59.4787 56.5008 59.4787C57.2647 59.4787 57.6003 59.7981 58.2865 60.5204L58.287 60.5209C59.0739 61.3492 60.1512 62.4831 62.2087 62.4831C64.2665 62.4831 65.344 61.3488 66.1308 60.5205L66.1309 60.5204C66.8171 59.7981 67.1527 59.4787 67.9166 59.4787C68.6804 59.4787 69.0159 59.7981 69.7021 60.5204C70.4549 61.3126 71.4762 62.3827 73.3649 62.4743V65.4125H39.6349V62.4743ZM51.8396 55.5833C51.5639 55.8628 51.1814 56.0236 50.7915 56.0236C50.4014 56.0236 50.0203 55.8628 49.7431 55.5833C49.4672 55.304 49.3088 54.9164 49.3088 54.5214C49.3088 54.1263 49.4672 53.7388 49.7431 53.4593C50.0189 53.1798 50.4014 53.0192 50.7915 53.0192C51.1828 53.0192 51.5639 53.1798 51.8396 53.4593C52.1168 53.7388 52.274 54.1263 52.274 54.5214C52.274 54.9164 52.1168 55.304 51.8396 55.5833ZM62.2077 56.0236C62.5977 56.0236 62.9801 55.8628 63.2558 55.5833C63.5331 55.304 63.6904 54.9164 63.6904 54.5214C63.6904 54.1263 63.5331 53.7388 63.2558 53.4593C62.9801 53.1798 62.5991 53.0192 62.2077 53.0192C61.8178 53.0192 61.4352 53.1798 61.1595 53.4593C60.8837 53.7388 60.7251 54.1263 60.7251 54.5214C60.7251 54.9164 60.8837 55.304 61.1595 55.5833C61.4352 55.8628 61.8178 56.0236 62.2077 56.0236ZM48.1122 43.5447C48.388 43.2652 48.7705 43.1045 49.1604 43.1045C49.5503 43.1045 49.933 43.2652 50.2085 43.5447C50.4859 43.8241 50.643 44.2117 50.643 44.6067C50.643 45.0018 50.4859 45.3893 50.2085 45.6687C49.933 45.9481 49.5519 46.1089 49.1604 46.1089C48.7705 46.1089 48.388 45.9481 48.1122 45.6687C47.8363 45.3893 47.6778 45.0018 47.6778 44.6067C47.6778 44.2117 47.8363 43.8241 48.1122 43.5447ZM56.4995 43.1045C56.1096 43.1045 55.7271 43.2652 55.4513 43.5447C55.1755 43.8241 55.0169 44.2117 55.0169 44.6067C55.0169 45.0018 55.1755 45.3893 55.4513 45.6687C55.7271 45.9481 56.1096 46.1089 56.4995 46.1089C56.891 46.1089 57.2721 45.9481 57.5476 45.6687C57.825 45.3893 57.9822 45.0018 57.9822 44.6067C57.9822 44.2117 57.825 43.8241 57.5476 43.5447C57.2721 43.2652 56.8895 43.1045 56.4995 43.1045ZM62.7904 43.5447C63.0662 43.2652 63.4487 43.1045 63.8386 43.1045C64.2302 43.1045 64.6112 43.2652 64.8867 43.5447C65.1641 43.8241 65.3213 44.2117 65.3213 44.6067C65.3213 45.0018 65.1626 45.3893 64.8867 45.6687C64.6112 45.9481 64.2302 46.1089 63.8386 46.1089C63.4487 46.1089 63.0662 45.9481 62.7904 45.6687C62.5146 45.3893 62.356 45.0018 62.356 44.6067C62.356 44.2117 62.5146 43.8241 62.7904 43.5447Z" fill="#555555"/>
</svg>
